<!-- Apice · onboarding-05-first-dca · v1 FINAL · media-engineer 2026-04-17 -->
<svg xmlns="http://www.w3.org/2000/svg" viewBox="0 0 320 240" width="320" height="240" role="img" aria-labelledby="ob5T ob5D"><title id="ob5T">Your first DCA</title><desc id="ob5D">Hero illustration — first deposit celebration. Week-by-week dot grid rising into an emerald pulse.</desc>
  <rect width="320" height="240" fill="#F7F3ED"/>
  <g fill="none" stroke="#0E0E12" stroke-width="1.2" stroke-linecap="round" stroke-linejoin="round">
    <line x1="32" y1="196" x2="288" y2="196"/>
    <line x1="32" y1="196" x2="32" y2="76"/>
    <text x="10" y="80" font-family="Geist, system-ui, sans-serif" font-size="8" fill="#8A8A93" stroke="none">$</text>
    <text x="32" y="212" font-family="Geist, system-ui, sans-serif" font-size="8" fill="#8A8A93" stroke="none">W1</text>
    <text x="280" y="212" font-family="Geist, system-ui, sans-serif" font-size="8" fill="#8A8A93" stroke="none">W12</text>
  </g>
  <g fill="none" stroke="#8A8A93" stroke-width="1" stroke-dasharray="3 4">
    <path d="M44 182 L 76 176 L 108 170 L 140 160 L 172 146 L 204 130 L 236 110 L 268 88"/>
  </g>
  <g fill="#16A661">
    <circle cx="44" cy="182" r="3"/>
    <circle cx="76" cy="176" r="3"/>
    <circle cx="108" cy="170" r="3"/>
    <circle cx="140" cy="160" r="3"/>
    <circle cx="172" cy="146" r="3"/>
    <circle cx="204" cy="130" r="3"/>
    <circle cx="236" cy="110" r="3"/>
    <circle cx="268" cy="88" r="5"/>
  </g>
  <circle cx="268" cy="88" r="11" fill="none" stroke="#16A661" stroke-width="1.4" opacity="0.45"/>
  <circle cx="268" cy="88" r="17" fill="none" stroke="#16A661" stroke-width="1" opacity="0.25"/>
  <g font-family="Geist, system-ui, sans-serif" fill="#0E0E12">
    <text x="32" y="48" font-size="20" font-weight="700" letter-spacing="-0.5">Week 1 · Deposited</text>
    <text x="32" y="68" font-size="14" font-weight="500" fill="#4A4A54" letter-spacing="-0.2">Consistency is the strategy.</text>
  </g>
</svg>
