<!-- Apice · dante-final · v1 FINAL · media-engineer 2026-04-17 -->
<svg xmlns="http://www.w3.org/2000/svg" viewBox="0 0 256 256" width="256" height="256" role="img" aria-labelledby="danteTitle danteDesc">
  <title id="danteTitle">Dante, the Risk Architect</title>
  <desc id="danteDesc">Portrait of Dante — Apice risk guardian expert. Graphite base with sparing rose accent on shield motif. Brand emerald dot indicates active listening.</desc>
  <defs>
    <linearGradient id="bgDante" x1="0" y1="0" x2="1" y2="1">
      <stop offset="0%" stop-color="#DCDFE4"/>
      <stop offset="55%" stop-color="#ECEDEF"/>
      <stop offset="100%" stop-color="#F7F3ED"/>
    </linearGradient>
    <clipPath id="frameDante"><rect width="256" height="256" rx="61" ry="61"/></clipPath>
  </defs>
  <g clip-path="url(#frameDante)">
    <rect width="256" height="256" fill="url(#bgDante)"/>
    <g opacity="0.45" fill="none" stroke="#3F3F46" stroke-width="1.7" stroke-linejoin="round">
      <path d="M196 36 L 230 44 L 230 66 Q 230 84, 213 94 L 196 92 L 179 94 Q 196 84, 196 66 Z"/>
    </g>
    <circle cx="213" cy="62" r="3" fill="#F43F5E" opacity="0.85"/>
    <path d="M22 256 C 34 206, 76 186, 104 184 L 104 200 Q 80 210, 62 232 Q 46 246, 40 256 Z" fill="#22252B"/>
    <path d="M234 256 C 222 206, 180 186, 152 184 L 152 200 Q 176 210, 194 232 Q 210 246, 216 256 Z" fill="#22252B"/>
    <path d="M104 184 L 152 184 L 152 208 L 104 208 Z" fill="#2A2E35"/>
    <rect x="114" y="158" width="28" height="30" rx="3" fill="#CFA98A"/>
    <path d="M82 120 C 82 90, 104 68, 128 68 C 152 68, 174 90, 174 120 L 174 128 Q 162 120, 128 120 Q 94 120, 82 128 Z" fill="#1F1F23"/>
    <ellipse cx="128" cy="130" rx="38" ry="42" fill="#CFA98A"/>
    <path d="M94 108 Q 108 86, 128 82 Q 148 86, 162 108 L 162 120 Q 146 110, 128 112 Q 110 110, 94 120 Z" fill="#1F1F23"/>
    <ellipse cx="114" cy="132" rx="2.9" ry="2.4" fill="#1A1A1E"/>
    <ellipse cx="142" cy="132" rx="2.9" ry="2.4" fill="#1A1A1E"/>
    <path d="M128 142 Q 126 150 130 152" fill="none" stroke="#8A6B52" stroke-width="1.1" stroke-linecap="round" opacity="0.7"/>
    <path d="M120 158 L 136 158" stroke="#5C4A38" stroke-width="1.5" stroke-linecap="round"/>
    <path d="M82 120 C 82 90, 104 68, 128 68 C 152 68, 174 90, 174 120 C 174 150, 162 172, 152 178 L 152 194 Q 198 204, 234 256 L 22 256 Q 58 204, 104 194 L 104 178 Q 82 170, 82 120 Z" fill="none" stroke="#0E0E12" stroke-width="1.5" stroke-linejoin="round"/>
    <circle cx="232" cy="232" r="6" fill="#16A661"/>
    <circle cx="232" cy="232" r="6" fill="none" stroke="#0F5D3F" stroke-width="0.8" opacity="0.6"/>
  </g>
</svg>
