<!-- Apice · kai-final · v1 FINAL · media-engineer 2026-04-17 -->
<svg xmlns="http://www.w3.org/2000/svg" viewBox="0 0 256 256" width="256" height="256" role="img" aria-labelledby="kaiTitle kaiDesc">
  <title id="kaiTitle">Kai, the Pattern Reader</title>
  <desc id="kaiDesc">Portrait of Kai — Apice momentum expert. Sky-blue accent with subtle upward waveform motif. Brand emerald dot indicates active listening.</desc>
  <defs>
    <linearGradient id="bgKai" x1="0" y1="0" x2="1" y2="1">
      <stop offset="0%" stop-color="#CEE9F9"/>
      <stop offset="55%" stop-color="#E8F2F7"/>
      <stop offset="100%" stop-color="#F7F3ED"/>
    </linearGradient>
    <clipPath id="frameKai"><rect width="256" height="256" rx="61" ry="61"/></clipPath>
  </defs>
  <g clip-path="url(#frameKai)">
    <rect width="256" height="256" fill="url(#bgKai)"/>
    <g opacity="0.55" fill="none" stroke="#0EA5E9" stroke-width="1.8" stroke-linecap="round">
      <path d="M26 218 Q 48 200, 70 214 T 114 208" />
      <path d="M32 226 Q 56 210, 80 222 T 126 214" opacity="0.55"/>
      <circle cx="114" cy="208" r="2" fill="#0EA5E9"/>
    </g>
    <path d="M22 256 C 34 210, 76 192, 104 188 L 104 202 Q 84 210, 68 228 Q 50 244, 42 256 Z" fill="#2C2F36"/>
    <path d="M234 256 C 222 210, 180 192, 152 188 L 152 202 Q 172 210, 188 228 Q 206 244, 214 256 Z" fill="#2C2F36"/>
    <path d="M104 188 L 104 208 Q 128 220 152 208 L 152 188 Z" fill="#3A3D45"/>
    <path d="M108 198 L 148 198" stroke="#1C1E25" stroke-width="1.3" stroke-linecap="round" opacity="0.6"/>
    <rect x="114" y="164" width="28" height="26" rx="3" fill="#D9B38A"/>
    <path d="M80 130 C 80 98, 104 72, 128 72 C 152 72, 176 98, 176 130 L 176 148 Q 174 136, 158 132 L 98 132 Q 82 136, 80 148 Z" fill="#2D2822"/>
    <ellipse cx="128" cy="132" rx="38" ry="44" fill="#D9B38A"/>
    <path d="M94 114 Q 104 96, 128 90 Q 152 96, 162 114 L 162 122 Q 144 116, 128 118 Q 112 116, 94 122 Z" fill="#2D2822"/>
    <ellipse cx="114" cy="134" rx="2.8" ry="2.4" fill="#1C1E25"/>
    <ellipse cx="142" cy="134" rx="2.8" ry="2.4" fill="#1C1E25"/>
    <path d="M122 158 L 134 158" stroke="#5C4A38" stroke-width="1.4" stroke-linecap="round"/>
    <path d="M80 130 C 80 98, 104 72, 128 72 C 152 72, 176 98, 176 130 C 176 156, 164 176, 152 182 L 152 198 Q 196 208, 234 256 L 22 256 Q 60 208, 104 198 L 104 182 Q 80 176, 80 130 Z" fill="none" stroke="#1C1E25" stroke-width="1.5" stroke-linejoin="round"/>
    <circle cx="232" cy="232" r="6" fill="#16A661"/>
    <circle cx="232" cy="232" r="6" fill="none" stroke="#0F5D3F" stroke-width="0.8" opacity="0.6"/>
  </g>
</svg>
