<!-- Apice · nora-final · v1 FINAL · media-engineer 2026-04-17 -->
<svg xmlns="http://www.w3.org/2000/svg" viewBox="0 0 256 256" width="256" height="256" role="img" aria-labelledby="noraTitle noraDesc">
  <title id="noraTitle">Nora, the Thesis Builder</title>
  <desc id="noraDesc">Portrait of Nora — Apice analyst expert. Warm indigo accent with subtle thesis chart motif. Brand emerald dot indicates active listening.</desc>
  <defs>
    <linearGradient id="bgNora" x1="0" y1="0" x2="1" y2="1">
      <stop offset="0%" stop-color="#E0D7FB"/>
      <stop offset="55%" stop-color="#F2ECFB"/>
      <stop offset="100%" stop-color="#F7F3ED"/>
    </linearGradient>
    <clipPath id="frameNora"><rect width="256" height="256" rx="61" ry="61"/></clipPath>
  </defs>
  <g clip-path="url(#frameNora)">
    <rect width="256" height="256" fill="url(#bgNora)"/>
    <g opacity="0.5" fill="none" stroke="#8B5CF6" stroke-width="1.8" stroke-linecap="round" stroke-linejoin="round">
      <polyline points="172,46 194,66 214,40 232,52"/>
      <circle cx="172" cy="46" r="2.2" fill="#8B5CF6"/>
      <circle cx="194" cy="66" r="2.2" fill="#8B5CF6"/>
      <circle cx="214" cy="40" r="2.2" fill="#8B5CF6"/>
      <circle cx="232" cy="52" r="2.2" fill="#8B5CF6"/>
    </g>
    <path d="M24 256 C 36 210, 72 192, 100 188 L 100 198 C 80 204, 56 220, 44 256 Z" fill="#2A2A30"/>
    <path d="M232 256 C 220 210, 184 192, 156 188 L 156 198 C 176 204, 200 220, 212 256 Z" fill="#2A2A30"/>
    <path d="M100 188 L 100 206 Q 128 220 156 206 L 156 188 Z" fill="#3A3A42"/>
    <path d="M110 196 Q 128 208 146 196" fill="none" stroke="#1C1C22" stroke-width="1.3" stroke-linecap="round" opacity="0.6"/>
    <rect x="114" y="164" width="28" height="28" rx="4" fill="#E8C9A8"/>
    <path d="M72 134 C 72 98, 98 70, 128 70 C 158 70, 184 98, 184 134 L 184 176 Q 170 170, 158 172 L 158 152 Q 158 148, 154 148 L 102 148 Q 98 148, 98 152 L 98 172 Q 86 170, 72 176 Z" fill="#5C3F2C"/>
    <ellipse cx="128" cy="132" rx="40" ry="46" fill="#EFD4B5"/>
    <path d="M86 118 Q 102 92, 128 88 Q 156 92, 170 118 Q 156 106, 138 108 Q 122 112, 102 116 Q 94 117, 86 118 Z" fill="#5C3F2C"/>
    <path d="M118 84 Q 126 78, 134 84" fill="none" stroke="#3A2817" stroke-width="1.2" stroke-linecap="round" opacity="0.7"/>
    <ellipse cx="113" cy="134" rx="3" ry="2.6" fill="#1F1F23"/>
    <ellipse cx="143" cy="134" rx="3" ry="2.6" fill="#1F1F23"/>
    <path d="M128 143 Q 125 151 130 154" fill="none" stroke="#B28A66" stroke-width="1.1" stroke-linecap="round" opacity="0.7"/>
    <path d="M120 162 Q 128 163 136 162" fill="none" stroke="#7A4F38" stroke-width="1.4" stroke-linecap="round"/>
    <path d="M72 134 C 72 98, 98 70, 128 70 C 158 70, 184 98, 184 134 C 184 160, 170 178, 156 184 L 156 200 Q 200 210, 232 256 L 24 256 Q 56 210, 100 200 L 100 184 Q 72 176, 72 134 Z" fill="none" stroke="#1C1C22" stroke-width="1.5" stroke-linejoin="round"/>
    <circle cx="232" cy="232" r="6" fill="#16A661"/>
    <circle cx="232" cy="232" r="6" fill="none" stroke="#0F5D3F" stroke-width="0.8" opacity="0.6"/>
  </g>
</svg>
