<!-- Apice · omar-final · v1 FINAL · media-engineer 2026-04-17 -->
<svg xmlns="http://www.w3.org/2000/svg" viewBox="0 0 256 256" width="256" height="256" role="img" aria-labelledby="omarTitle omarDesc">
  <title id="omarTitle">Omar, the Mentor</title>
  <desc id="omarDesc">Portrait of Omar — Apice mentor expert. Warm amber accent with subtle open-book motif. Brand emerald dot indicates active listening.</desc>
  <defs>
    <linearGradient id="bgOmar" x1="0" y1="0" x2="1" y2="1">
      <stop offset="0%" stop-color="#F7DFB3"/>
      <stop offset="55%" stop-color="#F5E9D2"/>
      <stop offset="100%" stop-color="#F7F3ED"/>
    </linearGradient>
    <clipPath id="frameOmar"><rect width="256" height="256" rx="61" ry="61"/></clipPath>
  </defs>
  <g clip-path="url(#frameOmar)">
    <rect width="256" height="256" fill="url(#bgOmar)"/>
    <g opacity="0.55" fill="none" stroke="#D9912D" stroke-width="1.7" stroke-linecap="round" stroke-linejoin="round">
      <path d="M24 224 L 64 216 L 64 244 L 24 246 Z"/>
      <path d="M64 216 L 104 222 L 104 246 L 64 244 Z"/>
      <line x1="64" y1="216" x2="64" y2="244"/>
      <line x1="34" y1="228" x2="56" y2="224"/>
      <line x1="34" y1="234" x2="56" y2="230"/>
      <line x1="72" y1="226" x2="96" y2="230"/>
      <line x1="72" y1="232" x2="96" y2="236"/>
    </g>
    <path d="M22 256 C 34 216, 74 198, 104 194 L 104 208 Q 82 218, 64 234 Q 48 248, 42 256 Z" fill="#A67F5C"/>
    <path d="M234 256 C 222 216, 182 198, 152 194 L 152 208 Q 174 218, 192 234 Q 208 248, 214 256 Z" fill="#A67F5C"/>
    <path d="M104 194 L 128 214 L 152 194 L 152 210 Q 128 224 104 210 Z" fill="#F7F3ED"/>
    <path d="M104 194 L 128 214 L 152 194" fill="none" stroke="#3A2817" stroke-width="1.4" stroke-linecap="round" stroke-linejoin="round"/>
    <rect x="114" y="162" width="28" height="30" rx="3" fill="#B98760"/>
    <path d="M82 128 C 82 100, 104 76, 128 76 C 152 76, 174 100, 174 128 L 174 138 Q 158 128, 128 128 Q 98 128, 82 138 Z" fill="#2E1F14"/>
    <ellipse cx="128" cy="134" rx="40" ry="44" fill="#B98760"/>
    <path d="M90 118 Q 108 92, 128 88 Q 150 92, 166 118 Q 148 110, 128 112 Q 108 110, 90 118 Z" fill="#2E1F14"/>
    <ellipse cx="114" cy="136" rx="2.9" ry="2.5" fill="#1C1208"/>
    <ellipse cx="142" cy="136" rx="2.9" ry="2.5" fill="#1C1208"/>
    <path d="M128 146 Q 125 154 130 156" fill="none" stroke="#7A4F2D" stroke-width="1.1" stroke-linecap="round" opacity="0.7"/>
    <path d="M118 162 Q 128 168 138 162" fill="none" stroke="#6A3D22" stroke-width="1.5" stroke-linecap="round"/>
    <path d="M82 128 C 82 100, 104 76, 128 76 C 152 76, 174 100, 174 128 C 174 156, 162 176, 152 182 L 152 198 Q 198 208, 234 256 L 22 256 Q 58 208, 104 198 L 104 182 Q 82 172, 82 128 Z" fill="none" stroke="#1C1208" stroke-width="1.5" stroke-linejoin="round"/>
    <circle cx="232" cy="232" r="6" fill="#16A661"/>
    <circle cx="232" cy="232" r="6" fill="none" stroke="#0F5D3F" stroke-width="0.8" opacity="0.6"/>
  </g>
</svg>
